# xmcd
#
# Track frame offsets:
#	150
#	17597
#	31065
#	46347
#	58000
#	71535
#	86637
#	99927
#	110702
#	125537
#
# Disc length: 1831 seconds
#
# Revision: 1
# Processed by: cddbd v1.5.2PL0 Copyright (c) Steve Scherf et al.
# Submitted via: audiograbber 1.81.03
#
DISCID=7c07250a
DTITLE=Lee Greenwood and Ray Price - Back to Back
DYEAR=1996
DGENRE=Gospel
TTITLE0=One Day at a Time
TTITLE1=Amazing Grace
TTITLE2=Amen
TTITLE3=Bound for the Promised Land
TTITLE4=The Lord's Prayer
TTITLE5=The Old Rugged Cross
TTITLE6=What a Friend We Have in Jesus
TTITLE7=Rock of Ages
TTITLE8=How Great Thou Art
TTITLE9=Peace in the Valley
EXTD=
EXTT0=
EXTT1=
EXTT2=
EXTT3=
EXTT4=
EXTT5=
EXTT6=
EXTT7=
EXTT8=
EXTT9=
PLAYORDER=
